<svg width="22" height="20" viewBox="0 0 22 20" fill="none" xmlns="http://www.w3.org/2000/svg">
<path d="M11.0712 0.259534C11.1097 0.173662 11.2316 0.173661 11.2702 0.259534L14.1708 6.72236C14.1867 6.75769 14.2201 6.78197 14.2586 6.78613L21.3014 7.54768C21.395 7.5578 21.4327 7.67375 21.3629 7.73694L16.1128 12.4927C16.0841 12.5187 16.0713 12.558 16.0792 12.5959L17.5313 19.5294C17.5506 19.6215 17.452 19.6932 17.3703 19.6464L11.2249 16.1228C11.1913 16.1035 11.15 16.1035 11.1164 16.1228L4.971 19.6464C4.88935 19.6932 4.79072 19.6215 4.81001 19.5294L6.2621 12.5959C6.27004 12.558 6.25728 12.5187 6.22857 12.4927L0.978406 7.73694C0.908646 7.67375 0.94632 7.5578 1.0399 7.54768L8.08276 6.78613C8.12126 6.78197 8.15467 6.75769 8.17053 6.72236L11.0712 0.259534Z" fill="#E1E60A"/>
</svg>
